# xmcd
#
# Track frame offsets:
# 150
# 16025
# 28597
# 40507
# 50225
# 70270
# 85735
# 94517
# 109390
# 124940
# 138497
# 149742
# 166297
# 179670
# 193107
# 206330
#
# Disc length: 2921 seconds
#
#
# Revision: 2
# Processed by: cddbd v1.5.2PL0 Copyright (c) Steve Scherf et al.
# Submitted via: FreeRIP 2.96 
#
DISCID=e60b6710
DTITLE=Tina Turner - Tina Turner - Soul Deep
DYEAR=1900
DGENRE=Country
TTITLE0=Good Hearted Woman
TTITLE1=Stand By Your Man
TTITLE2=Soul Deep
TTITLE3=Ain't Nobody's Business
TTITLE4=Lovin' Him Was Easier
TTITLE5=We Had It All
TTITLE6=Funky Mule
TTITLE7=It Sho Ain't Me
TTITLE8=If This Is Our Last Time
TTITLE9=It's Crazy Baby
TTITLE10=You're So Fine
TTITLE11=Lay It Down
TTITLE12=Am I A Fool In Love
TTITLE13=Freedom To Stay
TTITLE14=If It's All Right With You
TTITLE15=You Ain't Woman Enough To Take My Man
EXTD=
EXTT0=
EXTT1=
EXTT2=
EXTT3=
EXTT4=
EXTT5=
EXTT6=
EXTT7=
EXTT8=
EXTT9=
EXTT10=
EXTT11=
EXTT12=
EXTT13=
EXTT14=
EXTT15=
PLAYORDER=
